# xmcd
#
# Track frame offsets:
#	150
#	13806
#	27699
#	40520
#	53159
#	66482
#	76976
#	90117
#	104847
#	117807
#	130335
#	142655
#	155324
#	171558
#	183000
#
# Disc length: 2661 seconds
#
# Revision: 5
# Processed by: cddbd v1.5.2PL0 Copyright (c) Steve Scherf et al.
# Submitted via: EZCDAudioConverter 4.0.5.1
#
DISCID=c10a630f
DTITLE=Teodoro and Sampaio - Mulher Chorona
DYEAR=2003
DGENRE=Sertanejo
TTITLE0=Mulher Chorona
TTITLE1=Alô Mulherada
TTITLE2=Pinga Na Véia
TTITLE3=É Mentira Dela
TTITLE4=Tontão
TTITLE5=Nem Aí
TTITLE6=Você Quer Largar De Mim
TTITLE7=Vai Chover Mulher
TTITLE8=Filho Da Tuta
TTITLE9=Só Dou Carona Pra Quem Deu Pra mim
TTITLE10=Brinquinho na Orelha
TTITLE11=Bebo e Choro
TTITLE12=Telefone no Ar
TTITLE13=Eternos Companheiros
TTITLE14=Vendavais
EXTD=
EXTT0=
EXTT1=
EXTT2=
EXTT3=
EXTT4=
EXTT5=
EXTT6=
EXTT7=
EXTT8=
EXTT9=
EXTT10=
EXTT11=
EXTT12=
EXTT13=
EXTT14=
PLAYORDER=
